<?xml version="1.0" encoding="utf-8"?>
<!-- Generator: Adobe Illustrator 26.3.1, SVG Export Plug-In . SVG Version: 6.00 Build 0)  -->
<svg version="1.1" id="Layer_1" xmlns="http://www.w3.org/2000/svg" xmlns:xlink="http://www.w3.org/1999/xlink" x="0px" y="0px"
	 viewBox="0 0 314.96 60.24" style="enable-background:new 0 0 314.96 60.24;" xml:space="preserve">
<style type="text/css">
	.st0{fill:#FFFFFF;}
</style>
<path class="st0" d="M0,46.59h2.07v4.17h3.79v-4.17h2.07v10.2H5.86v-4.23H2.07v4.23H0V46.59z M9.5,53.02c0-2.31,0.84-3.91,3.45-3.91
	c2.61,0,3.45,1.6,3.45,3.91c0,2.31-0.84,3.94-3.45,3.94C10.33,56.97,9.5,55.33,9.5,53.02z M14.35,53.02c0-1.46-0.3-2.2-1.41-2.2
	c-1.11,0-1.41,0.75-1.41,2.2s0.3,2.24,1.41,2.24C14.05,55.26,14.35,54.48,14.35,53.02z M17.86,56.76V46.29h2.01v3.22
	c0.42-0.18,1.14-0.41,1.62-0.41c2.04,0,3.03,0.94,3.03,3.82c0,3.22-1.1,4.03-3.73,4.03C20.26,56.97,18.81,56.85,17.86,56.76z
	 M22.48,52.93c0-1.51-0.48-2.02-1.26-2.02c-0.43,0-1.02,0.1-1.35,0.19v4c0.3,0.03,0.75,0.06,0.91,0.06
	C22.17,55.17,22.48,54.55,22.48,52.93z M26.03,56.76V46.29h2.01v3.22c0.42-0.18,1.14-0.41,1.62-0.41c2.04,0,3.03,0.94,3.03,3.82
	c0,3.22-1.1,4.03-3.73,4.03C28.43,56.97,26.97,56.85,26.03,56.76z M30.65,52.93c0-1.51-0.48-2.02-1.26-2.02
	c-0.43,0-1.02,0.1-1.35,0.19v4c0.3,0.03,0.75,0.06,0.91,0.06C30.33,55.17,30.65,54.55,30.65,52.93z M36.63,56.79h-1.41l-1.85-7.5
	h1.98l1.37,5.79h0.34l1.37-5.79h1.98l-2.64,10.65h-1.96L36.63,56.79z M41.33,51.88h4.44v1.83h-4.44V51.88z M47.72,46.59h6.6v1.8
	h-4.53v2.39h3.63v1.77h-3.63v2.45h4.53v1.8h-6.6V46.59z M55.85,56.76V46.29h2.01v3.22c0.42-0.18,1.14-0.41,1.62-0.41
	c2.04,0,3.03,0.94,3.03,3.82c0,3.22-1.1,4.03-3.73,4.03C58.25,56.97,56.79,56.85,55.85,56.76z M60.47,52.93
	c0-1.51-0.48-2.02-1.26-2.02c-0.43,0-1.02,0.1-1.35,0.19v4c0.3,0.03,0.75,0.06,0.91,0.06C60.15,55.17,60.47,54.55,60.47,52.93z
	 M63.63,53.14c0-2.67,1.12-4.04,3.31-4.04c2.21,0,3.27,1.12,3.27,3.39l-0.15,1.4h-4.41c0.02,0.9,0.43,1.3,1.51,1.3
	c0.9,0,2.12-0.07,2.78-0.13l0.03,1.48c-0.73,0.18-2.1,0.42-3.12,0.42C64.59,56.97,63.63,55.84,63.63,53.14z M68.24,52.36
	c0-1.21-0.34-1.6-1.29-1.6c-0.96,0-1.29,0.47-1.3,1.6H68.24z M71.66,49.29h1.99v0.8c0.54-0.33,1.58-0.81,2.4-0.98v2.03
	c-0.96,0.18-1.92,0.46-2.38,0.63v5.02h-2.01V49.29z M77.33,46.29h2.01v10.5h-2.01V46.29z M83.85,56.79h-1.41l-1.84-7.5h1.98
	l1.37,5.79h0.34l1.37-5.79h1.98l-2.64,10.65h-1.96L83.85,56.79z M94.08,48.42h-2.73v-1.83h7.5v1.83h-2.7v8.37h-2.07V48.42z
	 M98.57,53.14c0-2.67,1.12-4.04,3.31-4.04c2.21,0,3.27,1.12,3.27,3.39l-0.15,1.4h-4.41c0.02,0.9,0.43,1.3,1.51,1.3
	c0.9,0,2.12-0.07,2.78-0.13l0.03,1.48c-0.73,0.18-2.1,0.42-3.12,0.42C99.53,56.97,98.57,55.84,98.57,53.14z M103.17,52.36
	c0-1.21-0.34-1.6-1.29-1.6c-0.96,0-1.29,0.47-1.3,1.6H103.17z M106.68,46.29h2.01v10.5h-2.01V46.29z M110.27,53.14
	c0-2.67,1.12-4.04,3.31-4.04c2.21,0,3.27,1.12,3.27,3.39l-0.15,1.4h-4.41c0.02,0.9,0.43,1.3,1.51,1.3c0.9,0,2.12-0.07,2.78-0.13
	l0.03,1.48c-0.73,0.18-2.1,0.42-3.12,0.42C111.23,56.97,110.27,55.84,110.27,53.14z M114.87,52.36c0-1.21-0.34-1.6-1.29-1.6
	c-0.96,0-1.29,0.47-1.3,1.6H114.87z M118.02,56.61l0.06-1.68c0.79,0.1,2.07,0.24,2.62,0.24c0.96,0,1.22-0.19,1.22-0.59
	c0-0.33-0.17-0.48-1.55-0.7c-1.62-0.27-2.47-0.66-2.47-2.31c0-1.74,1.32-2.44,2.89-2.44c0.8,0,2.13,0.21,2.91,0.37l-0.03,1.66
	c-0.79-0.1-2.1-0.24-2.73-0.24c-0.87,0-1.05,0.19-1.05,0.6c0,0.35,0.28,0.42,1.67,0.68c1.74,0.32,2.35,0.82,2.35,2.34
	c0,1.75-1.14,2.43-3.01,2.43C120.09,56.97,118.79,56.76,118.02,56.61z M125.01,52.96c0-2.66,0.93-3.86,3.16-3.86
	c0.63,0,1.74,0.2,2.4,0.33l-0.06,1.59c-0.51-0.05-1.34-0.12-1.76-0.12c-1.44,0-1.71,0.55-1.71,2.06c0,1.68,0.29,2.2,1.73,2.2
	c0.42,0,1.23-0.08,1.74-0.12l0.06,1.6c-0.69,0.14-1.83,0.32-2.44,0.32C125.89,56.97,125.01,55.78,125.01,52.96z M131.61,53.02
	c0-2.31,0.84-3.91,3.45-3.91c2.61,0,3.45,1.6,3.45,3.91c0,2.31-0.84,3.94-3.45,3.94C132.45,56.97,131.61,55.33,131.61,53.02z
	 M136.47,53.02c0-1.46-0.3-2.2-1.41-2.2c-1.11,0-1.41,0.75-1.41,2.2s0.3,2.24,1.41,2.24C136.17,55.26,136.47,54.48,136.47,53.02z
	 M139.98,49.29h1.99v0.41c0.42-0.26,1.17-0.59,1.71-0.59c1.98,0,2.95,1.08,2.95,3.87c0,3.2-1.11,3.99-3.4,3.99
	c-0.41,0-0.94-0.07-1.24-0.12v3.09h-2.01V49.29z M144.6,52.98c0-1.51-0.51-2.07-1.3-2.07c-0.45,0-1.01,0.16-1.3,0.3v3.93
	c0.28,0.05,0.79,0.09,1.1,0.09C144.29,55.23,144.6,54.57,144.6,52.98z M147.77,53.14c0-2.67,1.12-4.04,3.31-4.04
	c2.21,0,3.27,1.12,3.27,3.39l-0.15,1.4h-4.41c0.02,0.9,0.43,1.3,1.51,1.3c0.9,0,2.12-0.07,2.78-0.13l0.03,1.48
	c-0.73,0.18-2.1,0.42-3.12,0.42C148.73,56.97,147.77,55.84,147.77,53.14z M152.37,52.36c0-1.21-0.34-1.6-1.29-1.6
	c-0.96,0-1.29,0.47-1.3,1.6H152.37z M159.27,46.59h3.43c3.55,0,4.33,1.51,4.33,4.9c0,3.48-0.67,5.3-4.33,5.3h-3.43V46.59z
	 M162.71,54.99c2.01,0,2.2-1.23,2.2-3.5c0-2.23-0.19-3.1-2.2-3.1h-1.37v6.6H162.71z M168.17,54.51c0-1.69,0.98-2.17,2.63-2.29
	l1.6-0.12v-0.47c0-0.64-0.28-0.81-0.89-0.81c-0.72,0-2.04,0.07-2.82,0.12l-0.06-1.39c0.69-0.18,2-0.43,3.05-0.43
	c1.95,0,2.73,0.76,2.73,2.52v3.12c0.03,0.45,0.09,0.63,0.5,0.7l-0.06,1.51c-0.55,0-0.94-0.03-1.3-0.14
	c-0.3-0.07-0.55-0.19-0.84-0.39c-0.46,0.23-1.38,0.52-2.2,0.52C168.92,56.97,168.17,56.1,168.17,54.51z M172.39,55.09v-1.6
	l-1.37,0.12c-0.53,0.05-0.84,0.3-0.84,0.84c0,0.53,0.19,0.88,0.73,0.88C171.39,55.33,172.03,55.2,172.39,55.09z M176.32,49.29h1.99
	v0.8c0.54-0.33,1.58-0.81,2.4-0.98v2.03c-0.96,0.18-1.92,0.46-2.38,0.63v5.02h-2.01V49.29z M181.91,46.29h2.01v5.97l0.76-0.14
	l1.48-2.83h2.25l-1.95,3.55l2.06,3.94h-2.26l-1.51-2.92L183.92,54v2.79h-2.01V46.29z M193.11,46.59h6.6v1.8h-4.53v2.39h3.63v1.77
	h-3.63v2.45h4.53v1.8h-6.6V46.59z M201.24,49.29h1.99v0.42c0.43-0.25,1.24-0.6,1.87-0.6c2.1,0,2.64,1.32,2.64,3.61v4.07h-2.01v-4
	c0-1.14-0.15-1.87-1.13-1.87c-0.51,0-1.08,0.15-1.36,0.27v5.61h-2.01V49.29z M209.16,53.14c0-2.67,1.13-4.04,3.31-4.04
	c2.21,0,3.27,1.12,3.27,3.39l-0.15,1.4h-4.41c0.02,0.9,0.43,1.3,1.51,1.3c0.9,0,2.12-0.07,2.78-0.13l0.03,1.48
	c-0.73,0.18-2.1,0.42-3.12,0.42C210.12,56.97,209.16,55.84,209.16,53.14z M213.76,52.36c0-1.21-0.34-1.6-1.29-1.6
	c-0.96,0-1.29,0.47-1.3,1.6H213.76z M217.18,49.29h1.99v0.8c0.54-0.33,1.58-0.81,2.4-0.98v2.03c-0.96,0.18-1.92,0.46-2.38,0.63v5.02
	h-2.01V49.29z M222.39,58.15c0-0.69,0.33-1.2,1.08-1.78c-0.33-0.23-0.56-0.68-0.56-1.14c0-0.27,0.33-0.84,0.59-1.2
	c-0.53-0.37-1.02-0.93-1.02-2.24c0-1.93,1.39-2.65,3.15-2.65c0.48,0,1.14,0.11,1.51,0.2l2.42-0.07v1.6l-1.12-0.09
	c0.14,0.21,0.33,0.58,0.33,1.02c0,2.1-1.11,2.64-3.16,2.64c-0.16,0-0.48-0.03-0.62-0.06c-0.06,0.17-0.15,0.45-0.15,0.59
	c0,0.39,0.18,0.48,1.46,0.5c2.55,0.01,3.27,0.59,3.27,2.27c0,1.83-1.62,2.52-3.56,2.52C223.82,60.24,222.39,59.83,222.39,58.15z
	 M227.53,57.84c0-0.57-0.3-0.63-1.41-0.64c-0.3,0-0.95-0.06-1.35-0.1c-0.26,0.25-0.41,0.48-0.41,0.86c0,0.43,0.53,0.64,1.65,0.64
	C227,58.59,227.53,58.38,227.53,57.84z M226.79,51.79c0-0.7-0.33-1.1-1.14-1.1c-0.81,0-1.16,0.39-1.16,1.1s0.34,1.11,1.16,1.11
	C226.46,52.9,226.79,52.5,226.79,51.79z M233.34,56.79h-1.41l-1.84-7.5h1.98l1.37,5.79h0.34l1.37-5.79h1.98l-2.64,10.65h-1.96
	L233.34,56.79z M241.76,46.59h6.6v1.8h-4.53v2.39h3.63v1.77h-3.63v2.45h4.53v1.8h-6.6V46.59z M251.22,53.02l-2.06-3.73h2.15
	l1.2,2.32l1.21-2.32h2.15l-2.13,3.68l2.13,3.82h-2.15l-1.21-2.29l-1.2,2.29h-2.15L251.22,53.02z M256.99,49.29h1.99v0.41
	c0.42-0.26,1.17-0.59,1.71-0.59c1.98,0,2.95,1.08,2.95,3.87c0,3.2-1.11,3.99-3.4,3.99c-0.41,0-0.94-0.07-1.24-0.12v3.09h-2.01V49.29
	z M261.61,52.98c0-1.51-0.51-2.07-1.3-2.07c-0.45,0-1.01,0.16-1.3,0.3v3.93c0.28,0.05,0.79,0.09,1.1,0.09
	C261.3,55.23,261.61,54.57,261.61,52.98z M264.78,53.14c0-2.67,1.13-4.04,3.31-4.04c2.21,0,3.27,1.12,3.27,3.39l-0.15,1.4h-4.41
	c0.02,0.9,0.43,1.3,1.51,1.3c0.9,0,2.12-0.07,2.78-0.13l0.03,1.48c-0.73,0.18-2.1,0.42-3.12,0.42
	C265.74,56.97,264.78,55.84,264.78,53.14z M269.39,52.36c0-1.21-0.34-1.6-1.29-1.6c-0.96,0-1.29,0.47-1.3,1.6H269.39z M272.81,49.29
	h1.99v0.8c0.54-0.33,1.58-0.81,2.4-0.98v2.03c-0.96,0.18-1.92,0.46-2.38,0.63v5.02h-2.01V49.29z M278.39,46.29h2.01v2.04h-2.01
	V46.29z M278.39,49.29h2.01v7.5h-2.01V49.29z M282.26,49.29h1.99v0.42c0.45-0.25,1.23-0.6,1.77-0.6c0.84,0,1.43,0.23,1.87,0.71
	c0.6-0.3,1.7-0.71,2.52-0.71c2.04,0,2.64,1.2,2.64,3.61v4.07h-2.01v-4c0-1.14-0.15-1.87-1.05-1.87c-0.43,0-1.05,0.16-1.39,0.28
	c0.03,0.48,0.06,1.29,0.06,1.71v3.88h-2.01v-3.85c0-1.35-0.12-2.02-1.05-2.02c-0.48,0-1.05,0.15-1.33,0.27v5.61h-2.01V49.29z
	 M294.47,53.14c0-2.67,1.13-4.04,3.31-4.04c2.21,0,3.27,1.12,3.27,3.39l-0.15,1.4h-4.41c0.02,0.9,0.43,1.3,1.51,1.3
	c0.9,0,2.12-0.07,2.78-0.13l0.03,1.48c-0.73,0.18-2.1,0.42-3.12,0.42C295.43,56.97,294.47,55.84,294.47,53.14z M299.07,52.36
	c0-1.21-0.34-1.6-1.29-1.6c-0.96,0-1.29,0.47-1.3,1.6H299.07z M302.49,49.29h1.99v0.42c0.43-0.25,1.24-0.6,1.87-0.6
	c2.1,0,2.64,1.32,2.64,3.61v4.07h-2.01v-4c0-1.14-0.15-1.87-1.13-1.87c-0.51,0-1.08,0.15-1.36,0.27v5.61h-2.01V49.29z M311.09,54.12
	V51h-0.89v-1.71h0.89V47.2h2.01v2.08h1.84V51h-1.84v3.07c0,0.75,0,1.1,0.63,1.1c0.3,0,0.82-0.02,1.14-0.03l0.09,1.6
	c-0.43,0.09-1.14,0.23-1.53,0.23C311.61,56.97,311.09,56.28,311.09,54.12z M131.19,3.95c0,0-19.88,0.5-21.25,0
	c-1.23-0.45-1.53-0.87-1.53-1.94c0-1.35,2.24-1.51,3.07-1.52c0,0,51.21-0.13,56.06-0.16c3.9-0.02,7.75,0.23,11.53,1.31
	c2.65,0.75,5.42,1.16,7.97,2.13c6.26,2.39,11.99,5.63,15.94,11.32c2.8,4.02,3.84,8.48,3.03,13.27c-0.45,2.68-2.29,4.49-4.6,5.85
	c-3.07,1.81-6.52,2.47-9.93,2.54c-10.16,0.19-20.33,0.05-30.5,0.01c-1.69-0.01-1.92-0.28-1.88-1.93c0.18-8.4,0.39-30.88,0.39-30.88
	h-23.11c0,0-0.04,21,0,30.5c0,1.17-0.95,2.4-2.23,2.4c-1.13,0-2.56-0.52-2.56-1.98C131.6,34.46,131.19,3.95,131.19,3.95z
	 M164.38,18.18c-0.01,0-0.01,0-0.02,0c0,2.19-0.01,4.38,0,6.58c0.01,2.05-0.01,4.11,0.11,6.16c0.06,0.98,0.21,2.02,1.65,2.06
	c6.26,0.17,10.5-0.05,16.76,0c3.91,0.03,10.12-0.46,13.83-1.95c2.78-0.91,4.26-3.67,4.4-6.64c0.21-4.41-1.5-6.36-4.77-9.99
	c-2.27-2.3-4.39-3.79-6.99-5.1c-3.84-1.93-7.83-3.46-12.08-4.26c-1.56-0.29-3.12-0.59-4.7-0.78c-1.85-0.23-3.72-0.55-5.56-0.44
	c-1.83,0.11-2.73,1.01-2.67,2.72C164.48,10.41,164.38,14.3,164.38,18.18z M267.02,36.81c-1.11-0.23-1.38-0.86-0.9-1.87
	c0.88-1.82,1.48-3.82,2.6-5.47c2.04-2.99,4.19-5.94,6.64-8.6c2.55-2.77,5.46-5.23,8.32-7.7c0.79-0.68,0.66-1.04-0.01-1.39
	c-2.68-1.39-5.36-2.8-8.12-4.03c-2.58-1.15-5.25-2.09-7.89-3.1c-0.79-0.31-1.6-0.61-2.42-0.8c-0.91-0.21-1.36-0.82-1.02-1.56
	c0.33-0.73,1.06-1.8,1.63-1.8c1.41-0.02,2.87,0.34,4.23,0.8c2.08,0.71,4.12,1.58,6.13,2.48c3.15,1.4,6.27,2.88,9.39,4.34
	c1.02,0.48,2,1.06,3.05,1.44c0.49,0.17,1.19,0.11,1.67-0.11c3.61-1.63,7.16-3.38,10.77-5c2.92-1.3,5.89-2.48,8.85-3.68
	c0.53-0.22,1.17-0.42,1.71-0.32c0.59,0.1,1.34,0.42,1.62,0.88c0.44,0.73-0.07,1.4-0.81,1.75c-1.86,0.9-3.75,1.76-5.62,2.64
	c-3.95,1.85-7.91,3.68-11.83,5.59c-1.41,0.68-1.42,1.28-0.18,2.21c5.94,4.43,11.39,9.4,16.29,14.94c1.43,1.62,2.63,3.53,3.53,5.49
	c0.78,1.7-0.12,2.74-2.05,2.9C311.99,36.86,267.42,36.89,267.02,36.81z M307.12,32.4c0.37,0,0.57-0.44,0.32-0.71
	c-2.39-2.6-10.87-11.64-16.31-15.32c-1.6-1.08-2.7-0.94-4.16,0.38c-8.34,6.72-12.94,12.87-14.19,15.25c-0.1,0.19-0.03,0.4,0.18,0.4
	C276.89,32.41,301.88,32.4,307.12,32.4z M258.32,15.6c1.12,0,1.84-0.68,1.87-1.6c0.03-0.88-0.51-1.65-1.7-1.71
	c-2.12-0.11-36.26-0.12-37.95-0.19c-1.28-0.05-1.6-0.68-0.75-1.64l0.03-0.04c2.65-3.02,6.2-5.17,10.14-5.93
	c1.74-0.34,3.44-0.44,5.33-0.6c6.43-0.54,11.05-0.12,17.3,1.71c0,0,3.93,1.69,4.61,0.55s-0.18-1.82-0.18-1.82
	c-2.47-1.76-5.31-2.69-8.24-3.24c-6.08-1.15-13.25-1.23-19.34-0.17c-1.38,0.24-7.08,1.83-9.96,3.86c-2.84,1.99-5.49,4.56-6.84,7.8
	c-1.29,3.1-1.56,6.24-0.76,9.58c0.73,3.02,2.15,5.54,4.33,7.65c4.86,4.7,11.05,6.35,17.48,6.95c6.86,0.65,13.66,0.16,19.96-3.15
	c2.78-1.46,5.45-3.06,7.52-5.43c0.06-0.07,0.11-0.15,0.15-0.24c0.48-1.05-0.42-2.25-1.58-2.29c-0.08,0-0.17,0-0.25,0
	c-0.32,0.01-0.68,0.4-0.94,0.69c-1.89,2.13-4.24,3.59-6.84,4.67c-2.69,1.12-5.49,1.71-8.37,2.21c-3.76,0.65-7.43,0.35-11.02-0.43
	c-3.59-0.77-7.05-2.1-10.12-4.28c-3.66-2.6-6.03-5.78-5.56-10.53c0.09-0.97,0.59-1.54,1.46-1.65
	C220.33,16.07,255.21,15.6,258.32,15.6z M102.75,15.6c1.12,0,1.84-0.68,1.87-1.6c0.03-0.88-0.51-1.65-1.7-1.71
	c-2.12-0.11-36.26-0.12-37.95-0.19c-1.28-0.05-1.6-0.68-0.75-1.64l0.03-0.04c2.65-3.02,6.2-5.17,10.14-5.93
	c1.74-0.34,3.44-0.44,5.33-0.6c6.43-0.54,11.05-0.12,17.3,1.71c0,0,3.93,1.69,4.61,0.55c0.68-1.14-0.18-1.82-0.18-1.82
	c-2.47-1.76-5.31-2.69-8.24-3.24c-6.08-1.15-13.25-1.23-19.34-0.17c-1.38,0.24-7.08,1.83-9.96,3.86c-2.84,1.99-5.49,4.56-6.84,7.8
	c-1.29,3.1-1.56,6.24-0.76,9.58c0.73,3.02,2.15,5.54,4.33,7.65c4.86,4.7,11.05,6.35,17.48,6.95c6.86,0.65,13.66,0.16,19.96-3.15
	c2.78-1.46,5.45-3.06,7.52-5.43c0.06-0.07,0.11-0.15,0.15-0.24c0.48-1.05-0.42-2.25-1.58-2.29c-0.08,0-0.17,0-0.25,0
	c-0.32,0.01-0.68,0.4-0.94,0.69c-1.89,2.13-4.24,3.59-6.84,4.67c-2.69,1.12-5.49,1.71-8.37,2.21c-3.76,0.65-7.43,0.35-11.02-0.43
	c-3.59-0.77-7.05-2.1-10.12-4.28c-3.66-2.6-6.03-5.78-5.56-10.53c0.09-0.97,0.59-1.54,1.46-1.65C64.75,16.07,99.63,15.6,102.75,15.6
	z M4.75,11.86c-0.03-2.6,0.09-5.22-0.1-7.81C4.56,2.97,3.91,1.89,3.35,0.91C3.17,0.59,2.42,0.4,1.97,0.47C0.76,0.65,0,1.72,0,2.98
	C0.02,13.35,0.03,23.73,0.05,34.1c0,2.73,0,2.73,2.81,2.73c1.91-0.01,1.98-0.07,1.99-2.03c0.01-4.11-0.06-8.22,0.06-12.32
	c0.03-0.9,0.49-2.1,1.09-2.61c7.67-6.53,31.55-8.49,36.49-7.54c2.34,0.45,3.31,1.44,3.3,3.79c-0.02,6.53,0.03,13.06,0.07,19.59
	c0,0.34,0.16,0.96,0.29,0.97c1.17,0.1,2.39,0.27,3.51,0.02c0.39-0.09,0.78-1.28,0.75-1.95c-0.12-3.6-0.49-7.2-0.56-10.8
	c-0.12-6.44-0.06-12.88-0.13-19.33c-0.01-1.12-0.31-2.24-0.52-3.35c-0.2-1.09-1.15-1.39-1.96-1.24c-0.94,0.17-2.16,0.31-2.08,1.86
	c0.08,1.69-0.01,3.38,0.03,5.07c0.02,0.94-0.34,1.3-1.29,1.27c-2.65-0.09-5.31-0.19-7.96-0.13c-2.19,0.05-19.9,1.42-31.02,6.65
	C4.84,13.66,4.76,12.76,4.75,11.86z"/>
</svg>
